<svg xmlns="http://www.w3.org/2000/svg" viewBox="0 0 1280 640" width="1280" height="640">
  <defs><radialGradient id="bg" cx="68%" cy="28%" r="80%"><stop stop-color="#FFFDFC"/><stop offset="1" stop-color="#F1E7D8"/></radialGradient><linearGradient id="forge" x1="52" y1="46" x2="208" y2="210" gradientUnits="userSpaceOnUse"><stop stop-color="#E9A15B"/><stop offset=".48" stop-color="#B8683A"/><stop offset="1" stop-color="#96502F"/></linearGradient></defs>
  <rect width="1280" height="640" rx="52" fill="url(#bg)"/>
  <g transform="translate(100 152) scale(1.3)"><rect x="14" y="14" width="228" height="228" rx="58" fill="#F7F0E5" stroke="#B8683A" stroke-opacity=".2" stroke-width="2"/><path d="M52 68H79L112 165L145 68H172L125 190H98L52 68Z" fill="url(#forge)"/><path d="M145 68H204V91H171V119H200V142H171V190H145V68Z" fill="#302820"/><path d="M207 39L213 51L225 57L213 63L207 75L201 63L189 57L201 51L207 39Z" fill="#E9A15B"/></g>
  <text x="475" y="290" fill="#302820" font-family="Georgia,serif" font-size="104" font-weight="700">VibeForge</text>
  <text x="482" y="352" fill="#776A5B" font-family="Arial,sans-serif" font-size="30">A calm, Windows-first AI coding workspace</text>
  <text x="482" y="405" fill="#B8683A" font-family="Arial,sans-serif" font-size="22" letter-spacing="3">CHAT · BUILD · PREVIEW</text>
</svg>
